<svg width="610" height="499" viewBox="0 0 610 499" fill="none" xmlns="http://www.w3.org/2000/svg">
<path d="M356.975 219C381.242 219 402.308 223 420.175 231C438.308 239 452.175 250.467 461.775 265.4C471.375 280.333 476.175 298.067 476.175 318.6C476.175 338.867 471.375 356.6 461.775 371.8C452.175 386.733 438.308 398.2 420.175 406.2C402.308 414.2 381.242 418.2 356.975 418.2H293.775V499H241.775V219H356.975ZM354.575 374.2C377.242 374.2 394.442 369.4 406.175 359.8C417.908 350.2 423.775 336.467 423.775 318.6C423.775 300.733 417.908 287 406.175 277.4C394.442 267.8 377.242 263 354.575 263H293.775V374.2H354.575Z" fill="#650D0D"/>
<path d="M31.3454 157.686C66.2589 221.457 218.284 225.987 218.284 225.987C117.18 180.419 45.2216 166.868 15.8457 92.5596C15.8457 92.5596 8.41706 115.806 31.3454 157.686Z" fill="#B53838" stroke="#B53838"/>
<path d="M72.0858 109.115C78.9561 178.225 238.951 212.689 238.951 212.689C238.951 212.689 150.987 160.773 131.461 109.115C116.432 69.3538 131.461 2 131.461 2C131.461 2 67.4912 62.8969 72.0858 109.115Z" fill="#CA4545" stroke="#CA4545"/>
<path d="M183.362 133.095C195.95 169.192 252.44 201.029 252.44 201.029C252.44 201.029 207.823 141.289 196.899 110.5C186.134 80.1573 196.899 44.4918 196.899 44.4918C196.899 44.4918 170.907 97.3791 183.362 133.095Z" fill="#DE6868" stroke="#DE6868"/>
</svg>
